<?xml version="1.0" encoding="UTF-8"?>
<svg width="505px" height="133px" viewBox="0 0 505 133" version="1.1" xmlns="http://www.w3.org/2000/svg" xmlns:xlink="http://www.w3.org/1999/xlink">
    <!-- Generator: Sketch 63.1 (92452) - https://sketch.com -->
    <title>logo-bestrong</title>
    <desc>Created with Sketch.</desc>
    <defs>
        <linearGradient x1="9.37456204%" y1="100%" x2="81.9273919%" y2="100%" id="linearGradient-1">
            <stop stop-color="#5E309C" offset="0%"></stop>
            <stop stop-color="#9C68DF" offset="100%"></stop>
        </linearGradient>
        <linearGradient x1="22.2945281%" y1="0%" x2="69.2291585%" y2="86.058325%" id="linearGradient-2">
            <stop stop-color="#6DB9A1" offset="0%"></stop>
            <stop stop-color="#8950D3" offset="100%"></stop>
        </linearGradient>
    </defs>
    <g id="Page-1" stroke="none" stroke-width="1" fill="none" fill-rule="evenodd">
        <g id="logo-bestrong" fill-rule="nonzero">
            <g id="Group-17" transform="translate(138.000000, 24.000000)">
                <path d="M27.7024236,40.7795877 C29.6010184,38.8762338 30.5122838,36.5929415 30.5122838,33.9288492 C30.5122838,31.2645415 29.6010184,28.9808185 27.7024236,27.1539262 C25.8042585,25.2512185 23.5259877,24.3379877 20.7924065,24.3379877 C17.9825464,24.3379877 15.6286412,25.2512185 13.654412,27.1539262 C11.7560321,28.9808185 10.7687026,31.2645415 10.7687026,33.9288492 C10.7687026,36.5929415 11.7560321,38.8762338 13.654412,40.7795877 C15.6286412,42.6058338 17.9825464,43.5197108 20.7924065,43.5197108 C23.5259877,43.5197108 25.8042585,42.6058338 27.7024236,40.7795877 L27.7024236,40.7795877 Z M0.137560027,53.1103569 L0.137560027,0.0561723077 L11.4519905,0.0561723077 L11.4519905,19.7711877 C12.5912333,16.4219569 17.071281,14.0622031 22.842485,14.0622031 C28.2342278,14.0622031 32.7903397,15.9649108 36.359337,19.8467877 C40.0041835,23.6530646 41.8267142,28.3723569 41.8267142,33.9288492 C41.8267142,39.4853415 40.0041835,44.2046338 36.359337,48.0865108 C32.7903397,51.8927877 28.2342278,53.7954954 22.842485,53.7954954 C17.071281,53.7954954 12.5912333,51.4357415 11.4519905,48.0865108 L11.4519905,53.1103569 L0.137560027,53.1103569 Z" id="Fill-1" fill="#6DB9A1"></path>
                <path d="M75.0079246,29.5141754 C75.0079246,25.9362062 71.2867991,23.1196215 66.7309021,23.1196215 C61.7948994,23.1196215 57.7703769,25.9362062 57.4663353,29.5141754 L75.0079246,29.5141754 Z M45.9999915,33.8522369 C45.9999915,27.83956 47.9744355,22.9679908 51.8472595,19.3142062 C55.7198687,15.5846062 60.7317207,13.7577138 66.7309021,13.7577138 C72.5779553,13.7577138 77.2859806,15.6604215 80.9306122,19.3900215 C84.5758885,23.1196215 86.3979894,27.6872831 86.3979894,33.2437754 C86.3979894,34.5373754 86.322355,35.7558062 86.2465058,36.8969138 L57.3144219,36.8969138 C57.5423994,41.4645754 61.4910726,44.4327908 67.4900392,44.4327908 C71.0588216,44.4327908 74.1725085,43.2150062 76.8300256,40.7029754 L83.4366456,47.0210677 C78.9565979,51.6638985 73.4133714,54.0234369 66.9584499,54.0234369 C60.6556565,54.0234369 55.6438046,52.1971908 51.7711954,48.6192215 C47.8985863,44.9660831 45.9999915,40.1703292 45.9999915,34.1570062 L45.9999915,33.8522369 Z" id="Fill-3" fill="#6DB9A1"></path>
                <path d="M95.3570535,40.3226708 C97.4831961,42.8347015 101.507719,44.5093169 105.836283,44.5093169 C109.708892,44.5093169 111.607487,43.4431631 111.607487,41.3881785 C111.607487,40.6272246 111.151532,40.0181169 110.31633,39.5610708 C109.480914,39.1048862 107.96221,38.5715938 105.684369,38.0387323 C103.406313,37.5060862 101.659632,36.97344 100.520819,36.5930708 C94.6737657,34.5372246 91.7119922,31.0365785 91.7119922,25.9360554 C91.7119922,22.0541785 93.1550617,19.0095015 96.0403414,16.8780554 C98.9262657,14.6707938 102.418984,13.6052862 106.595635,13.6052862 C111.986948,13.6052862 116.315297,15.2799015 119.732596,18.5526708 L114.340853,26.0127323 C112.290775,24.1091631 109.556979,23.1961477 106.291593,23.1961477 C103.861624,23.1961477 102.495048,24.1856246 102.495048,25.6315015 C102.495048,26.6211938 102.874939,27.15384 104.089601,27.6873477 C105.532241,28.2958092 108.721562,28.8284554 112.974062,30.35144 C119.276856,32.48224 122.390543,36.1360246 122.390543,41.2356862 C122.390543,49.0761169 116.770822,54.1757785 105.532241,54.1757785 C98.0908496,54.1757785 92.5471934,51.8927015 88.8264976,47.3256862 L95.3570535,40.3226708 Z" id="Fill-5" fill="#8950D3"></path>
                <polygon id="Fill-7" fill="#8950D3" points="130.285547 53.1103785 130.285547 25.0229323 125.198061 25.0229323 125.198061 14.7471477 130.285547 14.7471477 130.285547 0.0559784615 141.29658 0.0559784615 141.29658 14.7471477 149.725302 14.7471477 149.725302 25.0229323 141.29658 25.0229323 141.29658 53.1103785"></polygon>
                <path d="M154.659284,53.1103785 L154.659284,14.7471477 L165.9735,14.7471477 L165.9735,19.9990862 C167.720396,16.1172092 171.820553,13.9099477 177.059953,13.9099477 C177.819735,13.9099477 178.806849,13.9857631 180.021726,14.13804 L180.021726,24.7941938 C178.882484,24.5661015 177.592187,24.4138246 176.224752,24.4138246 C169.770475,24.4138246 165.9735,28.0676092 165.9735,34.3857015 L165.9735,53.1103785 L154.659284,53.1103785 Z" id="Fill-9" fill="#8950D3"></path>
                <path d="M196.346247,41.0834523 C198.245057,42.9868062 200.599177,43.9764985 203.409037,43.9764985 C206.218038,43.9764985 208.571943,42.9868062 210.470967,41.0834523 C212.369132,39.1049292 213.356247,36.7453908 213.356247,33.9288062 C213.356247,31.1122215 212.369132,28.7526831 210.470967,26.8499754 C208.571943,24.8708062 206.218038,23.8811138 203.409037,23.8811138 C200.599177,23.8811138 198.245057,24.8708062 196.346247,26.8499754 C194.448082,28.7526831 193.460752,31.1122215 193.460752,33.9288062 C193.460752,36.7453908 194.448082,39.1807446 196.346247,41.0834523 M218.443733,19.5421908 C222.620384,23.4242831 224.670462,28.2200369 224.670462,33.9288062 C224.670462,39.6375754 222.620384,44.4326831 218.443733,48.3912369 C214.267297,52.2731138 209.255445,54.2522831 203.409037,54.2522831 C197.48549,54.2522831 192.473638,52.2731138 188.296987,48.3912369 C184.19683,44.4326831 182.146752,39.6375754 182.146752,33.9288062 C182.146752,28.2200369 184.19683,23.4242831 188.296987,19.5421908 C192.473638,15.5844985 197.48549,13.6053292 203.409037,13.6053292 C209.255445,13.6053292 214.267297,15.5844985 218.443733,19.5421908" id="Fill-11" fill="#8950D3"></path>
                <path d="M230.591753,53.1103785 L230.591753,14.7471477 L241.905969,14.7471477 L241.905969,19.5422554 C243.500952,16.1930246 247.829301,13.9099477 253.068701,13.9099477 C262.409117,13.9099477 267.724151,19.8468092 267.724151,29.81804 L267.724151,53.1103785 L256.409936,53.1103785 L256.409936,31.1881015 C256.409936,26.6975477 253.904117,23.9567785 249.423639,23.9567785 C245.095075,23.9567785 241.905969,27.0781323 241.905969,31.5691169 L241.905969,53.1103785 L230.591753,53.1103785 Z" id="Fill-13" fill="#8950D3"></path>
                <path d="M287.389885,40.6272677 C289.28805,42.45416 291.566321,43.3673908 294.299902,43.3673908 C297.109762,43.3673908 299.463667,42.45416 301.361832,40.6272677 C303.336491,38.8003754 304.323606,36.5931138 304.323606,33.9288062 C304.323606,31.2644985 303.336491,28.9807754 301.361832,27.1538831 C299.463667,25.2511754 297.109762,24.3379446 294.299902,24.3379446 C291.566321,24.3379446 289.28805,25.2511754 287.389885,27.1538831 C285.49172,28.9807754 284.580025,31.2644985 284.580025,33.9288062 C284.580025,36.5931138 285.49172,38.8003754 287.389885,40.6272677 M278.657337,19.84696 C282.302398,15.9648677 286.85851,14.06216 292.249823,14.06216 C298.020598,14.06216 302.501075,16.4219138 303.640318,19.7711446 L303.640318,14.7472985 L314.954319,14.7472985 L314.954319,46.7166215 C314.954319,55.6223446 313.512108,61.4069292 308.272709,65.4410831 C304.551153,68.4099446 299.919622,69.8564677 294.376181,69.8564677 C286.934145,69.8564677 280.707415,68.0295754 275.619929,64.4522523 L281.011242,56.2314523 C284.884066,58.6670215 288.756675,59.8845908 292.781198,59.8845908 C296.046798,59.8845908 298.7041,59.1996677 300.60291,57.9060677 C302.804902,56.3830831 303.944145,53.56736 303.944145,49.5329908 L303.944145,48.6957908 C302.349162,51.4356985 297.79305,53.3384062 292.249823,53.3384062 C286.85851,53.3384062 282.302398,51.5115138 278.657337,47.7819138 C275.088555,44.0523138 273.266024,39.4088369 273.266024,33.9288062 C273.266024,28.3723138 275.088555,23.6530215 278.657337,19.84696" id="Fill-15" fill="#8950D3"></path>
            </g>
            <g id="Group-29">
                <path d="M81.3689219,48.2589677 C82.5440149,49.6810968 83.5962082,51.209129 84.5039405,52.8192903 L84.5039405,52.8192903 C87.1365799,57.4876774 88.5272862,62.8109355 88.5251301,68.212 L88.5251301,68.212 C88.522974,76.5740323 85.2715242,84.4368065 79.372342,90.3479355 L79.372342,90.3479355 C73.8677323,95.8613871 66.6727138,99.0665806 58.960223,99.4707419 L58.960223,99.4707419 C53.4599257,103.443194 46.3468401,105.898419 37.1423048,105.991355 L37.1423048,105.991355 L48.8932342,105.995677 L57.2719703,106 L57.2849071,106 C78.1066914,106 94.9870632,89.0857419 94.9935368,68.2141613 L94.9935368,68.2141613 C94.9978439,56.5237419 89.7066914,46.0739032 81.3947955,39.1383226 L81.3947955,39.1383226 C81.4637918,42.3456774 81.4465428,45.6935161 81.3689219,48.2589677" id="Clip-19" fill="url(#linearGradient-1)"></path>
                <path d="M6.8623243,0.0729555 L49.8191081,0.0879757 L50.4516512,0.0947836 C53.1856715,0.1536838 55.8273784,0.5934529 58.3254865,1.3625506 L58.3254865,1.3625506 L58.7391634,1.493302 C69.0477226,4.8374421 76.8381195,13.81724 78.5153243,24.8177328 L78.5153243,24.8177328 L78.6177766,25.5479569 C78.7423319,26.5253198 78.8185135,27.5175142 78.8441351,28.5234413 L78.8441351,28.5234413 L78.8441351,28.525587 L78.7272365,28.6940283 L78.7272365,28.6940283 L78.6135405,28.8560324 L78.5516216,28.9440081 L78.4848986,29.0397621 L78.4848986,29.0397621 L78.4213784,29.1306883 L78.3589257,29.222419 L78.3589257,29.222419 L78.2932703,29.3109312 L78.2743209,29.3366802 L78.2743209,29.3366802 L78.256973,29.3624291 L78.2051319,29.4345606 C78.1422735,29.5219012 78.1053784,29.5727125 78.1053784,29.5727125 L78.1053784,29.5727125 L77.7783479,29.9968014 C77.1108411,30.8361208 76.3631081,31.6225159 75.5432162,32.3600405 L75.5432162,32.3600405 L75.0810705,32.7659132 C74.4551514,33.3007368 73.7906973,33.8105668 73.0920811,34.2997976 L73.0920811,34.2997976 L72.6253564,34.6203884 C72.3106216,34.8319433 71.9889279,35.0393657 71.6615405,35.2439271 L71.6615405,35.2439271 L71.7149189,35.0379352 L71.8676148,34.4131955 C72.2511542,32.7408182 72.4453724,31.0187089 72.4472703,29.2830364 L72.4472703,29.2830364 L72.4435338,28.8659565 L72.4435338,28.8659565 L72.4301892,28.4504858 L72.4077703,27.9296053 L72.4077703,27.9296053 L72.3725405,27.4119433 L72.3284114,26.9247495 C71.8032418,21.7395642 69.5383751,16.9311949 65.8219459,13.1942105 L65.8219459,13.1942105 L65.4903733,12.8674123 C61.2556934,8.776349 55.708632,6.5273134 49.816973,6.5252227 L49.816973,6.5252227 L6.8580541,6.5102024 L6.6541486,6.5104706 L6.6541486,6.5104706 L6.6424054,6.5123482 L8.6195405,6.5123482 L8.4613753,6.5180158 C7.3643811,6.5969102 6.4902285,7.4899319 6.4331622,8.5980162 L6.4331622,8.5980162 L6.4331622,8.6323482 L6.4054054,89.3017814 L6.4106513,89.6428765 C6.4930275,92.250901 7.5425428,94.6910088 9.3881892,96.54583 L9.3881892,96.54583 L9.6738169,96.8222818 C10.5438311,97.6331239 11.5305838,98.2765911 12.5951622,98.7323482 L12.5951622,98.7323482 L12.9723765,98.8850118 C14.1132432,99.3200474 15.3353946,99.5477328 16.5921351,99.5477328 L16.5921351,99.5477328 L23.7341622,99.5498785 L24.0138649,99.5498785 L24.108896,99.542315 C24.4734245,99.5058311 24.9994077,99.3655229 25.1775135,98.8718219 L25.1775135,98.8718219 L25.2058339,98.7803615 C25.238493,98.6531271 25.2501081,98.5044696 25.233027,98.3310931 L25.233027,98.3310931 L25.2319595,98.3217055 L25.2319595,98.3217055 L25.2308919,98.3139271 L25.1632188,97.7921926 C24.9309908,96.2150413 24.4436676,94.5356923 23.9113784,92.8980567 L23.9113784,92.8980567 L23.7523004,92.4131683 C23.0058533,90.157239 22.2155117,88.0066073 21.9385135,86.3363563 L21.9385135,86.3363563 L21.8395999,85.7259648 C21.1802714,81.4796175 21.213344,77.7860342 21.8125405,74.5519028 L21.8125405,74.5519028 L21.9451415,73.8831718 C26.5882878,52.0317964 57.5536159,51.5327154 72.6652676,40.9516194 L72.6652676,40.9516194 L73.1826518,40.5807653 C73.8638043,40.0809603 74.5098108,39.5594575 75.1161892,39.0118623 L75.1161892,39.0118623 L75.5200845,38.6390087 C76.3156994,37.8850814 77.0378108,37.0816079 77.6783514,36.2245344 L77.6783514,36.2245344 L77.6850984,36.2152304 C77.7028627,36.1907174 77.7547892,36.1189636 77.8299459,36.014251 L77.8299459,36.014251 L77.8472939,35.988502 L77.8472939,35.988502 L77.8662432,35.962753 L77.9318986,35.8742409 L77.9318986,35.8742409 L77.9943514,35.7825101 L78.0578716,35.691584 L78.0578716,35.691584 L78.1245946,35.59583 L78.1865135,35.5078543 L78.338029,35.2924052 C78.4413063,35.1447458 78.5480631,34.9907287 78.651973,34.8405263 L78.651973,34.8405263 L78.5471378,37.5935223 L78.3786757,41.9365182 L78.3786757,41.938664 L78.3734046,42.6731807 C78.3675997,43.4162804 78.3599932,44.1847267 78.3487838,44.9748988 L78.3487838,44.9748988 L78.3353816,45.8415812 C78.3054275,47.5920995 78.2557529,49.4441874 78.1715676,51.3735223 L78.1715676,51.3735223 L78.1497684,51.8593651 C77.40595,67.9434131 74.2121516,89.0470595 59.7517568,99.5176923 L59.7517568,99.5176923 L59.3779084,99.7842497 C53.983784,103.571166 47.0540596,105.901247 38.1463243,105.991417 L38.1463243,105.991417 L35.3108649,105.991417 L35.0788435,105.970874 C32.2270896,105.648077 32.6562897,102.987919 32.7145405,102.682672 L32.7145405,102.682672 L32.7177432,102.66792 L32.7177432,102.66792 L32.720946,102.654777 L32.8841557,102.002933 C33.10416,101.145114 33.3337297,100.331789 33.5728649,99.55417 L33.5728649,99.55417 L33.7140507,99.0984666 L33.7140507,99.0984666 L33.8568378,98.6508097 L34.1279957,97.8443951 C35.5935893,93.6066068 37.3701399,90.3422172 39.4701081,86.321336 L39.4701081,86.321336 L39.4955791,86.2923531 C40.2346345,85.6675169 54.5979256,82.3624291 54.8772432,81.8474494 L54.8772432,81.8474494 L54.8805277,81.8304478 C54.8355171,81.6267605 51.3989426,82.0933522 47.9700811,82.5619838 L47.9700811,82.5619838 L47.7081764,82.5977034 C44.3051403,83.0618186 40.9979574,83.5109413 41.1291081,83.2808097 L41.1291081,83.2808097 L41.5666365,82.5220591 C42.4416933,81.0210733 43.3151815,79.6198554 44.1588649,78.3305668 L44.1588649,78.3305668 L44.506625,77.8024108 C44.8529172,77.2804909 45.1944054,76.777581 45.5274865,76.2963968 L45.5274865,76.2963968 L45.8507074,75.8339847 C46.4919575,74.922373 47.1013861,74.0902603 47.6668919,73.3417004 L47.6668919,73.3417004 L47.8046882,73.1577024 L47.8046882,73.1577024 L47.9423243,72.9769231 L48.1889418,72.6563995 C48.6756779,72.0272759 49.122749,71.4699942 49.5180541,70.9899595 L49.5180541,70.9899595 L49.7635946,70.6959919 L49.9573815,70.4666985 C50.1461708,70.2447141 50.3197973,70.0447571 50.4767297,69.8677328 L50.4767297,69.8677328 L50.5423851,69.7942409 L50.5423851,69.7942409 L50.6048378,69.7239676 L50.661152,69.6612045 L50.661152,69.6612045 L50.7158649,69.6016599 L50.8190631,69.487061 C50.8854895,69.4142645 50.9471712,69.3484615 51.0041081,69.2883806 L51.0041081,69.2883806 L51.066027,69.2240081 L51.0946111,69.1934312 L51.0946111,69.1934312 L51.1217541,69.1660729 L51.1493365,69.1469343 C51.8382196,68.770179 62.7857838,66.6748583 62.7857838,66.6748583 L62.7857838,66.6748583 L52.9686459,67.387247 L53.2607863,67.1184782 C55.7870951,64.8397858 60.5469304,61.6221146 62.9181622,60.0788259 L62.9181622,60.0788259 L62.9480541,60.0595142 L62.9480541,60.0595142 L62.9779459,60.0402024 L63.1552622,59.9247678 C63.3273074,59.8130213 63.4834392,59.7124393 63.6227568,59.6239271 L63.6227568,59.6239271 L63.4292601,59.7124393 L63.4292601,59.7124393 L63.2341622,59.80417 L62.9632669,59.9296964 L62.9632669,59.9296964 L62.6875676,60.0616599 L62.6381125,60.0844585 L62.6381125,60.0844585 L62.5872162,60.1088664 L62.5293007,60.1370294 L62.5293007,60.1370294 L62.4697838,60.1668016 L62.4655135,60.1668016 L62.2463953,60.2743573 L62.2463953,60.2743573 L62.0256757,60.3835223 L61.7550473,60.5170951 L61.7550473,60.5170951 L61.4812162,60.6538866 L61.4470541,60.6710526 L61.1777601,60.8059666 L61.1777601,60.8059666 L60.9068649,60.9457085 L60.3245265,61.2473054 C59.9327688,61.4518668 59.5346847,61.6631039 59.1347027,61.8791093 L59.1347027,61.8791093 L59.1282973,61.8834008 L58.6706417,62.1325358 C55.4602895,63.8911569 52.1312654,65.9458888 50.1543243,67.5353036 L50.1543243,67.5353036 L50.1430297,67.5376233 C50.0518367,67.4958442 50.1328148,65.8624142 50.2397297,63.9862348 L50.2397297,63.9862348 L50.2697017,63.4766194 L50.2697017,63.4766194 L50.2995135,62.9605668 L50.3131757,62.7267706 C50.4451226,60.4684892 50.570818,58.2862672 50.4511081,58.38583 L50.4511081,58.38583 L50.435359,58.4069388 C50.2465064,58.7425305 49.7094842,62.3157999 49.249027,65.198583 L49.249027,65.198583 L49.2118029,65.431039 C48.9155421,67.2772439 48.6576288,68.7858462 48.5508378,68.8785425 L48.5508378,68.8785425 L47.8958053,69.4615607 C45.7376826,71.4169813 43.8314128,73.4907324 42.1368919,75.6247773 L42.1368919,75.6247773 L41.7571047,76.1078391 L41.7571047,76.1078391 L41.3853243,76.5925101 L41.3743967,76.5984043 C41.2347797,76.5799256 40.7924839,73.379396 40.3497838,70.1788664 L40.3497838,70.1788664 L40.2748057,69.6358355 C40.1250761,68.5518632 39.9773857,67.4874841 39.8439703,66.5697166 L39.8439703,66.5697166 L39.811911,66.3501372 C39.5788668,64.7618237 39.3921293,63.6667048 39.3206487,63.7652227 L39.3206487,63.7652227 L39.3046025,63.7954835 C39.0844857,64.3307295 39.2853219,69.1917243 39.4188649,73.3395547 L39.4188649,73.3395547 L39.428663,73.6358272 C39.5253795,76.584923 39.5821683,79.1045592 39.421,79.3433603 L39.421,79.3433603 L38.9712848,80.0244127 C34.5385791,86.8482078 32.0181421,94.0471399 29.5097027,99.5520243 L29.5097027,99.5520243 L29.2213594,100.176739 C28.9328159,100.793608 28.6433716,101.38664 28.3503243,101.953117 L28.3503243,101.953117 L28.3481892,101.955263 L28.346054,101.963846 L28.3428513,101.970283 L28.3396487,101.976721 L28.3216591,102.016905 C28.0850421,102.539177 26.4222326,105.991417 23.8238378,105.991417 L23.8238378,105.991417 L22.4403728,105.991417 C21.4137315,105.990238 20.8991886,105.988773 20.6606152,105.987878 L20.4780811,105.987125 L16.59,105.98498 L16.375499,105.98337 L16.375499,105.98337 L16.1608378,105.978542 L15.9993682,105.973983 L15.9993682,105.973983 L15.8362973,105.967814 L15.7591655,105.964327 L15.7591655,105.964327 L15.6804324,105.959231 L15.4968108,105.948234 L15.4968108,105.948234 L15.3131892,105.935627 L15.1509189,105.922485 L15.1509189,105.922485 L14.9886486,105.907733 L14.9117838,105.900223 L14.9117838,105.900223 L14.8349189,105.892713 L14.6555676,105.87206 L14.6555676,105.87206 L14.4762162,105.849798 L14.269375,105.822439 L14.269375,105.822439 L14.0641351,105.791862 L13.8797128,105.762626 L13.8797128,105.762626 L13.6968919,105.731781 L13.674473,105.728294 L13.674473,105.728294 L13.6520541,105.723198 L13.2533176,105.646488 L13.2533176,105.646488 L12.8577838,105.560121 L12.6976486,105.522303 L12.6976486,105.522303 L12.5375135,105.482874 L12.444902,105.459003 L12.444902,105.459003 L12.3538919,105.433522 L12.331473,105.428963 L12.331473,105.428963 L12.3090541,105.422793 L12.1780902,105.38712 L12.1780902,105.38712 L12.0485676,105.349838 L12.0442973,105.349838 L11.7144682,105.251773 C4.9276509,103.156207 -0.0042025,96.8066917 -5.38026107e-06,89.2996356 L-5.38026107e-06,89.2996356 L0.0277568,6.7419433 L0.0348044,6.4331021 C0.067557,5.7166776 0.2135135,5.0304403 0.4526486,4.3902024 L0.4526486,4.3902024 L0.5458199,4.1558034 C1.5526478,1.756438 3.9149037,0.0729555 6.6658919,0.0729555 L6.6658919,0.0729555 L6.8623243,0.0729555 Z M47.6192797,15.1083652 L47.85803,15.1131423 C53.2339845,15.3281758 56.1694301,22.7577981 54.3067797,28.3030673 L54.3067797,28.3030673 L54.187827,28.6400053 C52.8663783,32.2101432 49.8734848,35.0076008 46.4012712,36.1763654 L46.4012712,36.1763654 L45.9333222,36.3287304 C41.3384652,37.7753396 34.7208263,38.4522449 30.1146186,37.6308942 L30.1146186,37.6308942 L30.4238993,37.3261388 C36.4948599,31.149698 35.7757155,20.1577754 44.2974576,15.9529519 C45.4800848,15.3693269 46.5919492,15.1083652 47.6192797,15.1083652 L47.6192797,15.1083652 Z M24.3905625,13.0227788 L24.6173156,13.0275762 C27.7932523,13.1614708 31.0079382,16.0798913 31.7692188,19.4930769 L31.7692188,19.4930769 L31.8320168,19.8005438 C32.3659677,22.677991 31.4448653,25.7600889 29.5353438,27.9942308 L29.5353438,27.9942308 L29.2654068,28.3037718 C26.6841825,31.2066403 22.4016422,34.4703398 18.89075,35.9024711 L18.89075,35.9024711 L18.9902242,35.5291679 C20.6213574,28.9297458 15.6602622,22.1016029 19.8114687,15.7378846 C21.0653437,13.8151731 22.7142812,13.0227788 24.3905625,13.0227788 L24.3905625,13.0227788 Z" id="Combined-Shape" fill="url(#linearGradient-2)"></path>
            </g>
            <path d="M397.361696,124 C400.540271,124 404.199328,120.59726 407.377903,116.89863 C407.119182,116.380822 406.453899,115.789041 405.936456,115.567123 L405.677735,115.863014 C402.905722,119.080822 400.207629,121.632877 398.507461,121.632877 C397.657377,121.632877 397.176895,121.041096 398.063939,119.524658 L411,97 L407.156142,97 L394.737523,118.526027 C393.111276,121.373973 394.257041,124 397.361696,124 Z M411.197039,123 C415.535822,123 419.837836,119.638462 423,115.984615 C422.742615,115.473077 422.080766,114.888462 421.565995,114.669231 L421.30861,114.961538 C418.550909,118.140385 415.021051,120.661538 412.336889,120.661538 C409.98365,120.661538 408.586415,119.2 410.351344,116.130769 L410.719037,115.473077 C413.182584,116.496154 417.815522,116.021154 420.683531,111.088462 L421.235071,110.138462 C423.294155,106.630769 421.30861,104 418.183215,104 C415.09459,104 412.631044,105.607692 411.013192,108.384615 L407.005333,115.217308 C404.615325,119.273077 406.674409,123 411.197039,123 Z M412,113.734145 L414.47076,109.493544 C416.68338,105.760366 420.592344,106.376522 418.305969,110.290922 L417.752814,111.233278 C415.908963,114.314056 413.438203,114.241567 412,113.734145 Z M439.502814,124 C441.679174,124 444.193246,122.897959 446.144465,120.436735 C446.444653,120.473469 446.707317,120.473469 447.007505,120.473469 C449.333959,120.473469 453.011257,119.077551 455,116.763265 C454.737336,116.24898 454.061914,115.661224 453.536585,115.440816 L453.273921,115.734694 C451.510319,117.644898 449.296435,118.526531 447.382739,118.563265 L451.060038,112.355102 C452.035647,110.665306 452.523452,109.195918 452.523452,107.983673 C452.523452,106.036735 451.172608,104.567347 448.996248,104.567347 C448.058161,104.567347 447.232645,104.897959 446.444653,105.412245 L451.397749,97 L447.420263,97 L436.388368,115.661224 C435.412758,117.277551 435,118.710204 435,119.922449 C435,122.530612 436.988743,124 439.502814,124 Z M444.552941,117 C443.6,116.238754 443,115.020761 443,113.422145 C443,110.605536 445.541176,106 447.623529,106 C448.435294,106 449,106.647059 449,107.712803 C449,108.359862 448.788235,109.15917 448.294118,110.072664 L444.552941,117 Z M440.38843,121 C439.628099,121 439,120.468354 439,119.481013 C439,118.911392 439.198347,118.265823 439.595041,117.43038 L440.818182,115 C441.082645,116.708861 441.743802,118.189873 443,119.101266 C442.305785,120.392405 441.247934,121 440.38843,121 Z M457.361696,124 C460.540271,124 464.199328,120.59726 467.377903,116.89863 C467.119182,116.380822 466.453899,115.789041 465.936456,115.567123 L465.677735,115.863014 C462.905722,119.080822 460.207629,121.632877 458.507461,121.632877 C457.657377,121.632877 457.176895,121.041096 458.063939,119.524658 L471,97 L467.156142,97 L454.737523,118.526027 C453.111276,121.373973 454.257041,124 457.361696,124 Z M477.139735,119.56178 L478.003235,119.56178 C480.330932,119.56178 484.010195,118.196081 486,115.931896 C485.737196,115.428744 485.061413,114.853713 484.535804,114.638076 L484.272999,114.925592 C482.508455,116.758503 480.330932,117.656989 478.37867,117.692929 L482.057933,111.619163 C484.423173,107.701763 482.24565,104 478.566388,104 C475.562908,104 473.235211,105.150062 470.982601,108.887765 L469.067883,112.086375 L467.378425,114.853713 C462.460227,122.940088 471.883645,125.923062 477.139735,119.56178 Z M470.632674,117.631102 L473.490586,112.696341 L475.29939,109.634629 C477.940245,105.168131 481.557854,106.933118 479.27876,110.823294 L476.529377,115.505913 L476.348497,115.505913 C475.11851,115.505913 474.141755,116.514477 474.141755,117.739162 C474.141755,118.207424 474.28646,118.639666 474.503516,118.999867 L474.46734,119.071908 C472.694712,122.0976 468.389757,121.521278 470.632674,117.631102 Z M490.245283,129.746765 L493.102201,124.743493 C497.044025,123.501805 500.877358,120.835828 505,115.978637 C504.746855,115.467354 504.095912,114.88303 503.589623,114.663908 L503.336478,114.95607 C500.226415,118.571573 497.550314,120.908868 494.584906,122.187077 L503.011006,107.652023 L500.805031,107.652023 C500.805031,106.081653 499.213836,104 496.863208,104 C494.83805,104 492.017296,105.60689 490.426101,108.382428 L485.146226,117.585527 C483.555031,120.397585 484.676101,122.990522 487.713836,122.990522 C488.762579,122.990522 490.028302,122.515759 491.294025,121.712314 L490.245283,123.501805 C485.18239,125.072175 482,127.153828 482,130.002407 C482,133.65443 487.533019,134.421355 490.245283,129.746765 Z M488.951496,121 C488.069576,121 487.5711,120.397359 488.491364,118.853091 L494.051293,109.32383 C496.198576,105.670319 500.454797,106.611945 498.499236,110.152461 L495.470034,115.35024 C493.05434,119.154412 490.638647,121 488.951496,121 Z M485,130.18921 C485,129.221697 485.961538,128.110848 489,127 L487.192308,130.010041 C486.346154,131.40756 485,131.192557 485,130.18921 Z" id="leblog" fill="#6DB9A1"></path>
        </g>
    </g>
</svg>